<?xml version="1.0" encoding="UTF-8" standalone="no"?>
<svg
   xmlns:dc="http://purl.org/dc/elements/1.1/"
   xmlns:cc="http://creativecommons.org/ns#"
   xmlns:rdf="http://www.w3.org/1999/02/22-rdf-syntax-ns#"
   xmlns:svg="http://www.w3.org/2000/svg"
   xmlns="http://www.w3.org/2000/svg"
   xmlns:sodipodi="http://sodipodi.sourceforge.net/DTD/sodipodi-0.dtd"
   xmlns:inkscape="http://www.inkscape.org/namespaces/inkscape"
   version="1.0"
   width="74.289856pt"
   height="36pt"
   viewBox="0 0 74.289857 36"
   preserveAspectRatio="xMidYMid meet"
   id="svg6"
   sodipodi:docname="domox_logo_48.svg"
   inkscape:version="0.92.2 (5c3e80d, 2017-08-06)">
  <metadata
     id="metadata12">
    <rdf:RDF>
      <cc:Work
         rdf:about="">
        <dc:format>image/svg+xml</dc:format>
        <dc:type
           rdf:resource="http://purl.org/dc/dcmitype/StillImage" />
        <dc:title></dc:title>
      </cc:Work>
    </rdf:RDF>
  </metadata>
  <defs
     id="defs10" />
  <sodipodi:namedview
     pagecolor="#ffffff"
     bordercolor="#666666"
     borderopacity="1"
     objecttolerance="10"
     gridtolerance="10"
     guidetolerance="10"
     inkscape:pageopacity="0"
     inkscape:pageshadow="2"
     inkscape:window-width="2880"
     inkscape:window-height="1495"
     id="namedview8"
     showgrid="false"
     inkscape:zoom="0.98333333"
     inkscape:cx="-193.34982"
     inkscape:cy="-50.903944"
     inkscape:window-x="-13"
     inkscape:window-y="67"
     inkscape:window-maximized="1"
     inkscape:current-layer="svg6" />
  <g
     transform="matrix(0.05373134,0,0,-0.05373134,-11.142975,66.626862)"
     id="g4"
     style="fill:#000000;stroke:none;stroke-width:1.86111116">
    <path
       d="m 237,1178 c -23,-36 -34,-64 -28,-66 7,-2 11,-39 11,-98 0,-77 3,-94 15,-94 13,0 15,-26 15,-175 0,-110 4,-175 10,-175 6,0 10,6 10,13 0,13 70,87 83,87 4,0 7,-22 7,-50 0,-38 4,-50 15,-50 8,0 15,6 15,13 0,7 14,26 31,43 30,29 31,29 45,9 8,-11 12,-30 9,-43 -4,-15 -1,-22 10,-22 12,0 15,14 15,65 0,36 3,65 7,65 4,0 20,-12 35,-27 21,-20 28,-36 28,-65 0,-28 4,-38 16,-38 11,0 14,6 9,20 -3,11 -2,20 3,20 5,0 17,-9 27,-20 30,-34 44,-25 47,31 l 3,51 38,-32 c 20,-18 37,-41 37,-51 0,-11 5,-19 10,-19 6,0 10,10 10,23 0,21 46,77 63,77 4,0 7,-22 7,-50 0,-27 5,-50 10,-50 6,0 10,28 10,63 l 1,62 34,-37 c 21,-22 35,-48 35,-63 0,-14 5,-25 10,-25 6,0 10,14 10,31 0,23 10,42 39,70 21,22 41,39 45,39 3,0 6,-31 6,-70 0,-56 3,-70 15,-70 12,0 15,15 15,75 0,41 3,75 7,75 3,0 18,-13 33,-30 22,-25 26,-37 23,-75 -4,-36 -1,-45 11,-45 9,0 16,6 16,13 0,11 86,107 96,107 2,0 4,-27 4,-60 0,-47 3,-60 15,-60 12,0 15,14 15,62 v 62 l 45,-44 c 25,-24 45,-52 45,-62 0,-10 7,-18 15,-18 11,0 15,17 17,69 l 3,70 72,-70 c 40,-38 79,-69 88,-69 12,0 15,13 15,59 v 59 l -117,116 c -105,103 -122,116 -153,116 -29,0 -42,8 -82,53 -40,44 -47,58 -48,94 0,24 5,43 13,46 8,3 3,22 -20,63 l -31,59 -439,2 -438,3 z m 68,-9 c 9,-17 14,-33 11,-36 -7,-7 -66,-6 -73,1 -4,4 36,66 44,66 1,0 10,-14 18,-31 z m 235,-93 c 0,-29 -4,-34 -27,-37 -55,-8 -73,0 -73,31 0,27 3,29 48,33 26,2 48,4 50,5 1,1 2,-13 2,-32 z m 145,4 c 8,-37 0,-50 -31,-50 -21,0 -24,4 -24,40 0,36 3,40 24,40 19,0 26,-7 31,-30 z m -415,-16 c 0,-28 3,-35 18,-32 11,2 18,14 20,36 3,26 7,32 28,32 19,0 24,-5 24,-24 0,-14 -4,-28 -10,-31 -5,-3 -10,-28 -10,-56 v -49 h -49 c -30,0 -50,5 -53,13 -2,6 -5,42 -7,80 -2,62 -1,67 18,67 17,0 21,-6 21,-36 z m 493,-5 c -8,-29 -13,-23 -13,14 0,22 3,28 9,18 5,-7 6,-22 4,-32 z m 67,31 c 0,-5 -11,-10 -25,-10 -14,0 -25,5 -25,10 0,6 11,10 25,10 14,0 25,-4 25,-10 z m 110,-25 c 0,-32 -2,-35 -30,-35 -28,0 -30,3 -30,35 0,32 2,35 30,35 28,0 30,-3 30,-35 z m 108,-47 3,-78 h -38 -38 l -3,81 -2,80 37,-3 38,-3 z m 112,2 v -80 h -45 -45 v 80 80 h 45 45 z m -330,30 c 0,-15 -6,-19 -22,-16 -34,5 -36,36 -4,36 19,0 26,-5 26,-20 z M 396,985 c 20,-31 13,-55 -15,-48 -16,4 -21,13 -21,39 0,40 13,44 36,9 z m 68,3 c 23,-32 20,-48 -9,-48 -22,0 -25,4 -25,35 0,40 12,45 34,13 z m 71,10 c 34,-15 34,-54 0,-60 -31,-6 -35,-2 -35,39 0,37 0,37 35,21 z m 76,2 c 11,-6 19,-21 19,-35 0,-20 -5,-25 -25,-25 -22,0 -25,4 -25,35 0,38 2,40 31,25 z m 71,-7 c 8,-10 18,-26 21,-35 5,-15 1,-18 -23,-18 -28,0 -30,3 -30,35 0,39 9,44 32,18 z m 91,-34 c 4,-15 0,-19 -18,-19 -26,0 -34,13 -27,48 4,21 6,22 22,7 10,-9 20,-25 23,-36 z m 51,29 c 23,-32 20,-48 -9,-48 -22,0 -25,4 -25,35 0,40 12,45 34,13 z m 76,-30 c 0,-11 -7,-18 -20,-18 -16,0 -20,7 -20,37 0,35 0,36 20,18 11,-10 20,-26 20,-37 z m 60,-14 c 0,-2 -4,-5 -9,-9 -14,-8 -41,23 -34,40 4,13 9,11 24,-6 11,-12 19,-23 19,-25 z m 300,-63 v -25 l -31,30 c -34,31 -53,70 -43,86 10,15 74,-64 74,-91 z m -925,27 c 9,-9 -33,-30 -45,-23 -19,12 -10,32 15,31 13,-1 27,-5 30,-8 z m 135,-39 c 0,-67 -19,-79 -58,-35 -45,52 -30,84 41,82 14,0 17,-9 17,-47 z m 74,42 c 3,-4 -5,-18 -18,-30 -22,-20 -24,-21 -30,-4 -10,25 34,57 48,34 z m 103,-7 c 5,-14 -31,-64 -47,-64 -3,0 -6,14 -6,30 1,42 40,67 53,34 z m 193,-5 c 0,-6 -4,-7 -10,-4 -5,3 -10,11 -10,16 0,6 5,7 10,4 6,-3 10,-11 10,-16 z m 90,-36 c 0,-39 -2,-43 -18,-34 -39,21 -62,68 -41,82 6,3 21,4 35,1 21,-4 24,-10 24,-49 z m 93,50 c 2,-5 -14,-23 -35,-42 l -38,-33 v 34 c 0,19 2,37 5,39 8,8 64,9 68,2 z m 97,-4 c 0,-3 -11,-16 -25,-29 l -25,-23 v 30 c 0,27 3,31 25,29 14,0 25,-4 25,-7 z M 750,885 c 0,-28 -12,-32 -30,-10 -14,16 -6,35 16,35 8,0 14,-10 14,-25 z m 89,-79 1,-50 -35,34 c -30,29 -35,41 -35,78 v 44 l 34,-29 c 31,-25 35,-34 35,-77 z m 421,-31 c 0,-36 -6,-47 -50,-90 l -50,-49 v 139 139 l 50,-49 c 44,-43 50,-54 50,-90 z m 104,103 c 19,-27 23,-99 4,-80 -7,7 -27,12 -45,12 -32,0 -33,1 -33,45 0,43 1,45 29,45 20,0 35,-8 45,-22 z M 364,851 c 4,-39 -6,-47 -29,-21 -17,19 -17,21 0,40 22,24 24,23 29,-19 z m 206,-8 v -37 l -22,21 c -18,18 -19,24 -8,37 20,25 30,19 30,-21 z M 996,711 950,665 v 65 c 0,62 1,66 43,108 l 42,43 3,-62 c 3,-62 3,-63 -42,-108 z M 722,843 c 26,-25 28,-32 28,-110 0,-46 -3,-83 -7,-83 -4,0 -22,14 -40,32 -31,30 -33,36 -33,103 0,94 7,102 52,58 z m 410,-52 c -1,-39 -1,-74 -1,-78 -2,-20 -61,54 -61,76 0,23 48,86 58,77 2,-3 4,-37 4,-75 z M 360,745 c 0,-16 -71,-105 -83,-105 -2,0 -3,47 -3,105 v 105 l 43,-42 c 24,-23 43,-52 43,-63 z m 286,-3 c -7,-7 -46,28 -46,41 0,6 10,22 23,35 l 22,24 3,-47 c 2,-26 1,-50 -2,-53 z m 244,34 c -20,-25 -28,-19 -27,19 1,35 1,35 21,16 16,-17 17,-23 6,-35 z m 680,-133 c 0,-13 -4,-23 -10,-23 -5,0 -41,31 -80,68 -64,63 -70,72 -70,108 l 1,39 79,-85 c 52,-54 80,-92 80,-107 z M 419,773 c -15,-18 -26,-16 -31,5 -9,32 2,45 23,26 14,-13 16,-20 8,-31 z m 115,32 c 19,-14 19,-15 1,-35 -26,-29 -35,-25 -35,15 0,38 5,42 34,20 z m 296,-79 c 0,-12 -40,-56 -52,-56 -4,0 -8,25 -8,55 v 56 l 30,-23 c 17,-12 30,-26 30,-32 z m 532,37 c 13,-11 18,-30 18,-67 v -50 l -45,44 c -53,52 -61,90 -18,90 14,0 35,-7 45,-17 z M 468,713 c -10,-12 -14,-11 -31,6 -18,17 -18,22 -7,36 13,16 16,15 32,-5 14,-18 16,-26 6,-37 z m 102,12 c 0,-37 -10,-44 -29,-21 -9,11 -9,19 1,35 19,30 28,26 28,-14 z m 360,-10 c 0,-51 -10,-57 -35,-19 -16,24 -16,27 1,45 26,29 34,23 34,-26 z M 650,646 v -51 l -26,27 c -19,18 -28,38 -29,65 -3,52 3,58 31,32 19,-18 24,-33 24,-73 z m -235,14 c -24,-27 -39,-12 -30,30 l 7,32 21,-20 c 20,-21 20,-22 2,-42 z"
       id="path2"
       inkscape:connector-curvature="0"
       style="stroke-width:1.86111116" />
  </g>
</svg>
